<svg xmlns="http://www.w3.org/2000/svg" xmlns:xlink="http://www.w3.org/1999/xlink" width="500" zoomAndPan="magnify" viewBox="0 0 375 374.999991" height="500" preserveAspectRatio="xMidYMid meet" version="1.0"><defs><g/></defs><rect x="-37.5" width="450" fill="#ffffff" y="-37.499999" height="449.999989" fill-opacity="1"/><rect x="-37.5" width="450" fill="#000000" y="-37.499999" height="449.999989" fill-opacity="1"/><g fill="#ffffff" fill-opacity="1"><g transform="translate(124.353011, 244.495886)"><g><path d="M 173.894531 -74.265625 C 152.941406 -66.175781 131.433594 -59.007812 109.742188 -52.757812 L 108.640625 -58.273438 C 104.226562 -81.984375 99.816406 -105.699219 94.851562 -129.226562 C 94.667969 -130.328125 93.933594 -131.433594 93.015625 -131.984375 C 92.277344 -132.351562 91.542969 -132.71875 90.808594 -132.71875 C 89.335938 -132.71875 88.050781 -131.984375 87.316406 -130.699219 C 74.082031 -109.007812 60.292969 -87.316406 45.585938 -66.542969 C 31.25 -45.402344 15.992188 -24.816406 -0.183594 -4.964844 C -0.367188 -4.78125 -0.367188 -4.59375 -0.183594 -4.410156 C 0 -4.226562 0.183594 -4.226562 0.367188 -4.410156 C 34.558594 -37.867188 62.683594 -77.574219 88.785156 -117.644531 C 92.832031 -97.425781 97.058594 -77.207031 101.46875 -56.984375 L 102.757812 -50.734375 C 81.066406 -44.667969 59.191406 -39.523438 37.316406 -35.84375 C 36.582031 -35.660156 35.84375 -35.292969 35.660156 -34.558594 C 35.109375 -33.457031 35.660156 -32.351562 36.765625 -31.800781 C 50 -26.285156 65.625 -16.910156 77.757812 -9.191406 C 91.175781 -1.101562 104.410156 7.167969 117.644531 15.808594 C 118.382812 16.175781 119.117188 16.175781 119.851562 16.175781 C 121.324219 15.808594 122.425781 14.339844 122.242188 12.683594 L 110.292969 -50.367188 C 131.800781 -57.167969 153.308594 -64.890625 174.261719 -73.527344 C 174.445312 -73.710938 174.632812 -73.894531 174.445312 -74.082031 C 174.445312 -74.265625 174.078125 -74.449219 173.894531 -74.265625 Z M 44.667969 -32.902344 C 64.523438 -37.132812 84.007812 -42.277344 103.308594 -48.160156 L 114.890625 7.167969 C 103.492188 0 91.910156 -6.800781 80.332031 -13.601562 C 68.75 -20.402344 56.800781 -27.207031 44.667969 -32.902344 Z M 44.667969 -32.902344 "/></g></g></g></svg>